<?xml version="1.0" encoding="utf-8"?>
<!-- Generator: Adobe Illustrator 24.3.0, SVG Export Plug-In . SVG Version: 6.00 Build 0)  -->
<svg version="1.1" id="Ebene_1" xmlns="http://www.w3.org/2000/svg" xmlns:xlink="http://www.w3.org/1999/xlink" x="0px" y="0px"
	 viewBox="0 0 448.71 409.25" style="enable-background:new 0 0 448.71 409.25;" xml:space="preserve">
<style type="text/css">
	.st0{fill:#409A93;}
</style>
<path class="st0" d="M446.43,125.58L364.83,4.75l0,0c-1.89-2.79-5.03-4.45-8.4-4.46h-264c-3.37,0-6.51,1.67-8.39,4.46L2.39,125.58
	c-2.49,3.69-2.3,8.51,0.47,12l213.47,267.33c0.93,1.22,2.15,2.23,3.53,2.92c1.43,0.71,2.96,1.05,4.49,1.05
	c3.02,0,5.99-1.34,7.95-3.81l213.63-267.5C448.72,134.1,448.91,129.28,446.43,125.58z M356.42,6.29c1.38,0,2.67,0.68,3.44,1.82
	l11.6,17.17l-74.53,129.84l-32.91-57.28v-0.13h-0.07L211.41,6.29H356.42z M293.47,161.15l-35.1,61.15h-70.25l-34.92-61.25
	l32.97-57.33h74.29L293.47,161.15z M88.99,8.11c0.77-1.14,2.05-1.82,3.43-1.82h112.07l52.53,91.43H28.46L88.99,8.11z M7.56,133.85
	c-1.13-1.42-1.21-3.4-0.19-4.9l17.04-25.22h154.85l-81.96,142.5L7.56,133.85z M227.62,401.34c-1.21,1.52-3.34,1.99-5.07,1.13
	c-0.57-0.29-1.07-0.7-1.49-1.25L101.32,251.26l48.42-84.18l110.36,193.6L227.62,401.34z M264.13,355.63L191.54,228.3h174.27
	L264.13,355.63z M441.26,133.84l-70.65,88.46H265.29L375.19,30.83l66.26,98.11C442.47,130.45,442.39,132.42,441.26,133.84z"/>
</svg>
