<?xml version="1.0" encoding="utf-8"?>
<!-- Generator: Adobe Illustrator 24.3.0, SVG Export Plug-In . SVG Version: 6.00 Build 0)  -->
<svg version="1.1" id="Emblem" xmlns="http://www.w3.org/2000/svg" xmlns:xlink="http://www.w3.org/1999/xlink" x="0px" y="0px"
	viewBox="0 0 100.2 100.2" style="enable-background:new 0 0 100.2 100.2;" xml:space="preserve">
<style type="text/css">
	.st0{fill:#409A93;}
	.st1{fill:#FFFFFF;}
</style>
<g>
	<path class="st0" d="M100.2,50.1c0,27.67-22.43,50.1-50.1,50.1C22.43,100.2,0,77.77,0,50.1C0,22.43,22.43,0,50.1,0
		C77.77,0,100.2,22.43,100.2,50.1z"/>
	<g>
		<path class="st1" d="M72.63,50.12c4.81-2.05,7.21-5.2,7.21-9.44c0-3.94-1.53-6.93-4.59-8.99C72.59,29.89,69.18,29,65.03,29H42.84
			v3.08h12.81h9.24c3.15,0,5.75,0.59,7.8,1.77c2.54,1.44,3.8,3.61,3.8,6.49c0,2.89-1.22,5.07-3.67,6.56c-2.1,1.27-4.77,1.9-8,1.9
			h-9.17H46.2h-3.34v24.66h21.31c4.68,0,8.53-0.88,11.54-2.62c3.72-2.14,5.58-5.4,5.58-9.77C81.29,55.43,78.4,51.78,72.63,50.12z
			M73.88,68.28c-2.32,1.4-5.29,2.1-8.92,2.1H46.2v-18.5H64.7c3.67,0,6.64,0.61,8.92,1.84c2.93,1.57,4.39,4.04,4.39,7.41
			C78.01,64.28,76.63,66.67,73.88,68.28z"/>
		<path class="st1" d="M34.95,48.8L34.95,48.8c-0.22,0.01-0.48,0-0.65,0c-6.82,0-10.02-2.94-10.02-8.88V29h-3.34v10.99
			c0,3.85,1.27,6.84,3.8,8.98c2.19,1.79,5.1,2.76,8.7,2.92l-0.03,0.06v21.51h3.35V51.95l-0.07-3.15H34.95z"/>
	</g>
</g>
</svg>
