<svg xmlns="http://www.w3.org/2000/svg" viewBox="0 0 487.88 216.12"><defs><style>.cls-1{fill:#6f6f6f;fill-rule:evenodd;}.cls-2{fill:#409a93;}.cls-3{fill:#fff;}</style></defs><g id="Handschrift"><path class="cls-1" d="M348.62,105c1.05.85,1,2.08,1,3.27A52.43,52.43,0,0,1,348,119.56a106,106,0,0,1-5.8,17.62c-.7,1.61-1.71,3.08-2.53,4.63a39.81,39.81,0,0,1-4.37,6.78,2.05,2.05,0,0,0-.31.94,47.16,47.16,0,0,0-1,10,13.12,13.12,0,0,0,.29,1.95.6.6,0,0,0,.8.55c1.32-.3,2.66-.55,3.95-1a50.63,50.63,0,0,0,12.36-5.54,136.81,136.81,0,0,0,11.35-8,3.6,3.6,0,0,1,1.15-.55c.94-.27,1.49.32,1.19,1.29a14.4,14.4,0,0,1-.72,1.89,17.33,17.33,0,0,0-1.61,5.84c-.26,3,1.21,5,4.1,5.52a18.89,18.89,0,0,0,7.48-.53,19.55,19.55,0,0,0,4.85-2c4.05-2.13,7-4.15,11-6.4,2.88-1.62,5.61-3.53,8.41-5.32.3-.19.57-.41.88-.58a1,1,0,0,1,1.54.75,1.83,1.83,0,0,1-.51,1.75,26.59,26.59,0,0,0-2.35,2.4,12.09,12.09,0,0,0-1.43,2.5,3.1,3.1,0,0,0,.17,2.61,1.41,1.41,0,0,0,2.08.87,9.22,9.22,0,0,0,3.15-2.51l.5-.54c1,.53,1,.56.92,1.72a158.89,158.89,0,0,1-3,17.88c-.59,2.73-1.27,5.44-1.9,8.16a2,2,0,0,0-.05.39c1-1.24,1.84-2.4,2.77-3.51,1.88-2.26,3.84-4.45,5.69-6.74,2.93-3.64,5.86-7.29,8.69-11a73.74,73.74,0,0,1,7.53-8.72,3.29,3.29,0,0,0,.77-1.22,8.74,8.74,0,0,1,4.81-4.78c.73-.33,1.65.52,1.53,1.39a3.71,3.71,0,0,1-1.36,2.24c-1.25,1.1-2.5,2.21-3.77,3.29a1.14,1.14,0,0,0-.43,1,6.49,6.49,0,0,0,3.54,5.95,9.8,9.8,0,0,0,5.89,1.2,17.87,17.87,0,0,0,8.16-2.44A15.56,15.56,0,0,0,445,157a64.2,64.2,0,0,0,7.29-7.81,2.3,2.3,0,0,0,.59-1.31.94.94,0,0,1,1.54-.79c2.69,1.77,3.6,2.43,6.72,2.37,1.67,0,2.63-.57,4.29-1,1-.24,2-.69,3-1,.33-.1.84-.19,1,0a1.36,1.36,0,0,1,.09,1.05c-.54,1.81-1.19,3.6-1.69,5.42s-.83,3.57-1.2,5.37a5.7,5.7,0,0,0-.07,1.43c0,.65.32,1,.92.88a11.21,11.21,0,0,0,2.37-.56c3-1.18,5.74-3.4,8.35-5.27,6.18-5.5,4.13-3.93,7.6-7.07l.23-.19c.36-.32.67-.9,1.18-.61a1.26,1.26,0,0,1,.57,1.34,1.87,1.87,0,0,1-.81,1.46c-2.3,1.57-2.51,2.26-4.8,3.87s-4.95,4.35-8.06,6.52a39.81,39.81,0,0,1-4.12,2.44,7.27,7.27,0,0,1-2.11.64,2.33,2.33,0,0,1-2.67-1.86,6.44,6.44,0,0,1-.06-3.56c.77-2.84,1.63-5.66,2.46-8.49l.22-.68-1.2.43c-2.48.9-4.29,1.62-6.93,1.63-2.4,0-2.65-.41-4.88-1.36a.56.56,0,0,0-.75.15c-2.55,2.58-5,5.21-7.67,7.69a23.87,23.87,0,0,1-8.42,5.17,14.35,14.35,0,0,1-5.33.74c-3.78-.56-5.46-1.23-7.56-4a9.31,9.31,0,0,1-1.45-3.82c-.06-.28-.1-.57-.17-1-1.14,1.1-2.17,2.17-3.28,3.17-3.67,3.3-6.38,7.44-9.32,11.38-2.35,3.15-4.89,6.14-7.24,9.29s-4.51,6.35-6.74,9.54a2.51,2.51,0,0,0-.31.71q-2.48,7.64-4.94,15.29a5.7,5.7,0,0,1-.29.72,1,1,0,0,1-1.6.55,1.43,1.43,0,0,1-.91-1.48,26.58,26.58,0,0,1,2.32-9.29,54.8,54.8,0,0,1,4.48-8.25,5,5,0,0,0,.6-1.34,183.26,183.26,0,0,0,5.26-26c0-.31.07-.63.11-1-.64.43-1.2.84-1.8,1.18-1.84,1-3.45.53-4.43-1.4a7.11,7.11,0,0,1-.43-5.41l.15-.45.16-.51-2.51,1.33c-5.23,2.69-9.29,5.43-14.55,8.06a21.26,21.26,0,0,1-10.88,2.21,6.1,6.1,0,0,1-5.86-4.12,9.63,9.63,0,0,1-.43-4.55c.13-1.09.33-2.17.51-3.35-.24.14-.43.24-.61.36-7.68,4.68-13.17,8.49-21.73,11.1-1.16.35-2.36.61-3.55.85-1.65.33-2.38-.17-2.8-1.85a14.48,14.48,0,0,1-.31-4.82c.2-2.11.49-4.2.74-6.3,0-.15,0-.31,0-.56-.9.85-1.73,1.65-2.58,2.42-4.5,4.05-7.31,7.56-12.76,10.15a20.17,20.17,0,0,1-2.72,1c-.84.25-1.31,0-1.5-.82a17.23,17.23,0,0,1-.5-3.9c.07-2.85.32-5.7.49-8.55,0-.13,0-.27,0-.48l-2.38,1.16a47,47,0,0,1-11,4c-2.61.55-5.29.72-7.94,1a.9.9,0,0,0-.79.46,23.14,23.14,0,0,1-4.08,5.43,9.51,9.51,0,0,1-2.12,1.43,2.24,2.24,0,0,1-3.18-1.14,7.4,7.4,0,0,1-.79-3.35c0-1.3,0-2.59,0-3.93a69,69,0,0,1-21.16,8.52c.07-.66.12-1.34.24-2,0-.18.27-.36.46-.47a19.63,19.63,0,0,0,5.4-5,7.49,7.49,0,0,0,1.72-4.48,4.73,4.73,0,0,0-.76-2.48.67.67,0,0,0-1-.28,6.76,6.76,0,0,0-1.47,1c-1.79,1.93-3.58,3.87-5.29,5.88-2,2.35-3.89,4.77-5.84,7.15a2.92,2.92,0,0,1-.53.46c-.69.48-1.38.18-1.36-.68a14.53,14.53,0,0,1,.38-2.78c.81-3.51,1.59-7,2.52-10.52,3-11.17,6.55-22.14,10.56-33,.91-2.45,2.05-4.82,3.14-7.2a7,7,0,0,1,1.22-1.73,1.21,1.21,0,0,1,2.15.26,5.13,5.13,0,0,1,.52,3A45.11,45.11,0,0,1,270,122,115,115,0,0,1,259.7,145.1c-.86,1.49-1.9,2.86-2.85,4.3a1.46,1.46,0,0,0-.19.42q-1.37,5.09-2.72,10.17a2.09,2.09,0,0,0,0,.25c.22-.26.4-.44.56-.63,2.18-2.65,4.32-5.34,6.58-7.93,1.22-1.4,2.64-2.63,4-3.92a3.54,3.54,0,0,1,.73-.48,1.66,1.66,0,0,1,2.44.58,7,7,0,0,1,.72,6.93,14.87,14.87,0,0,1-2.93,4.58l-.66.74c.25-.05.37-.07.5-.11a58.94,58.94,0,0,0,16.23-8.12,3.12,3.12,0,0,0,.87-1,8.22,8.22,0,0,1,4.53-3.9c.81-.28,1.28-.17,1.63.4a1.8,1.8,0,0,1-.22,2,28,28,0,0,1-4.75,4.1,1.62,1.62,0,0,0-.59.83,15.58,15.58,0,0,0-.47,5.93c.26,1.79,1.08,2.2,2.62,1.31a9.67,9.67,0,0,0,3.16-3.38c.59-.91,1.1-1.87,1.6-2.84.59-1.16.85-1.25,2.09-1.2a24.28,24.28,0,0,0,6.36-.51,36.38,36.38,0,0,0,7.74-2.29,37.77,37.77,0,0,0,6.69-3.94,2.46,2.46,0,0,0,1-1.66,274,274,0,0,1,4.76-27.16c.89-3.76,2-7.47,3-11.18a13.62,13.62,0,0,1,1.25-2.39h.35a2.36,2.36,0,0,1,.68,1.84c-.05,2.11,0,4.24-.27,6.34a142.81,142.81,0,0,1-3.34,18.59A84.61,84.61,0,0,1,315.92,147a12.14,12.14,0,0,0-.48,1.62c-.05.17-.06.39-.17.5a2.66,2.66,0,0,0-.53,1.84c-.12,1.07-.27,2.14-.3,3.22-.07,2.21-.15,4.43-.08,6.64.05,1.41.24,1.45,1.54,1a32.88,32.88,0,0,0,6.91-3.77c4.56-3.1,6.74-6.63,10.36-10.87.41-.48,1-.79,1.16-1.52,1.29-5.63,2.51-11.28,4-16.87a126.05,126.05,0,0,1,6.85-19.57,10.11,10.11,0,0,1,2.76-4.21Zm-.42,2.62-.26-.09c-.55,1.15-1.14,2.29-1.62,3.48a271.45,271.45,0,0,0-10,32.35,3.53,3.53,0,0,0,.68-.88c1.69-3.12,3.47-6.19,5-9.37,2.33-4.77,3.25-10.06,4.84-15.1a40.13,40.13,0,0,0,1.12-6.53C348.14,110.21,348.13,108.91,348.2,107.62ZM258.9,142l.11.07.25-.39a98.91,98.91,0,0,0,10-22.59,37.25,37.25,0,0,0,1.7-8.24,3.57,3.57,0,0,0-.31-2,7.35,7.35,0,0,0-.77,1.07c-.74,1.54-1.52,3.06-2.14,4.65-2.62,6.64-4.67,13.49-6.74,20.33C260.3,137.3,259.61,139.66,258.9,142Zm56.89,1.15c3.17-5.08,8.79-31.16,7.59-35.38C319.94,119.37,317.9,131.28,315.79,143.17Zm77.52,52.45a20.16,20.16,0,0,0-2.3,6.62Z"/><path class="cls-1" d="M.13,157.64c.55-1.75,1-3.54,1.66-5.25a32,32,0,0,1,2.06-4.09A3.22,3.22,0,0,1,5,147.24a.67.67,0,0,1,1.12.54,4.65,4.65,0,0,1-.25,1.81,19.14,19.14,0,0,1-1.1,2.34,20.92,20.92,0,0,0-2.31,6.37,2.18,2.18,0,0,0,.09,1.47,2.09,2.09,0,0,0,1.6-.3c2.51-1,6.34-2.63,8.48-4.25,3.08-2.34,6.09-4.77,9.13-7.17a5.43,5.43,0,0,0,.57-.64,8.4,8.4,0,0,1,.9.84.68.68,0,0,1,.06.58c-2.05,6.12-4.07,12.25-6.18,18.35-1.22,3.53-2.69,7-3.83,10.52-1.83,5.7-3.5,11.46-5.19,17.2-.58,2-1,3.95-1.56,5.93a.62.62,0,0,0,0,.44c.08-.16.16-.32.23-.49a191,191,0,0,1,10.38-21A100.11,100.11,0,0,1,37.49,155c2.59-2.33,5.4-4.44,8.15-6.6a8.41,8.41,0,0,1,1.77-.81c.36-.15.72-.3,1.08-.43a1.4,1.4,0,0,1,.53-.11c.37,0,.74.06,1.11.07.79,0,1.09.48.89,1.22a1.68,1.68,0,0,0-.07,1q1.86,5.31,3.78,10.6a14.74,14.74,0,0,0,.74,1.51c1.47-.87,2.92-1.62,4.24-2.54,3.85-2.69,7.65-5.45,11.44-8.21a7.5,7.5,0,0,0,1.13-1.19,1.72,1.72,0,0,1,2.46-.53,16.54,16.54,0,0,1,2.13,1.11,3.07,3.07,0,0,0,2.67.38c1.21-.34,2.41-.73,3.6-1.14a1.35,1.35,0,0,0,.59-.57,9.16,9.16,0,0,1,3.41-2.82,1,1,0,0,1,1.47.41,9,9,0,0,0,.66.84,1.55,1.55,0,0,1-.67,2.47c-1.4.49-2.81,1-4.19,1.5a1.15,1.15,0,0,0-.56.59,5.84,5.84,0,0,0-.25,3.76c.59,3,2.74,4.44,5.57,5.07a16.76,16.76,0,0,0,11.65-1.5,36.43,36.43,0,0,0,10.86-9c1.65-1.91,3.18-3.91,4.76-5.86,1.81-2.24,3.64-4.47,5.44-6.71a11.28,11.28,0,0,0,1.66-3.26c1.94-5.29,3.94-10.56,5.94-15.84a4.42,4.42,0,0,1,.63-1.09c.17-.21.52-.46.71-.41a1,1,0,0,1,.65.61,6.11,6.11,0,0,1,.16,1.95,31.46,31.46,0,0,1-2.76,9.29,79.57,79.57,0,0,1-5.08,9.34,3.84,3.84,0,0,0-.43.86q-2.06,7.17-4.1,14.33c0,.15-.05.31-.1.59,1.33-.12,2.61-.17,3.88-.34a38.53,38.53,0,0,0,21.42-9.9,32.86,32.86,0,0,0,5.24-6,27,27,0,0,0,1.52-3.21c2-4.18,4-8.37,6.11-12.53a9.74,9.74,0,0,1,1.39-2,1,1,0,0,1,1.89.34,5.32,5.32,0,0,1,.08,2.35,25.85,25.85,0,0,1-3.21,7.95,61.13,61.13,0,0,1-6.82,9.59,2.51,2.51,0,0,0-.45.71q-2.81,7.17-5.59,14.36c0,.13-.06.27-.11.49,1.27,0,2.49-.07,3.7-.16a66,66,0,0,0,20.89-4.9,12.08,12.08,0,0,0,2.9-1.6,12.36,12.36,0,0,1,4.23-2.11,2,2,0,0,1,2,.58,1.35,1.35,0,0,1,0,1.06,3.49,3.49,0,0,1-1.89,1.75q-2.13.93-4.31,1.74a1.67,1.67,0,0,0-1,1,5.61,5.61,0,0,0,1.72,6.15,12.62,12.62,0,0,0,6.17,2.38c8.72,1.22,22.82-2.74,29.31-6.51a62.46,62.46,0,0,0,12.19-9.27,3.64,3.64,0,0,1,.56-.48,1.22,1.22,0,0,1,1.87.8,1.7,1.7,0,0,1-.62,1.78,85.33,85.33,0,0,1-14.81,9.71,67.92,67.92,0,0,1-20.93,6.1c-6.57.72-7.3.24-12.87-1.7A8.47,8.47,0,0,1,169,153.1c-.2.05-.39.09-.57.15a77,77,0,0,1-22.74,4.11c-1.77,0-1.69.09-2.32,1.7a2.49,2.49,0,0,0,.61,3,9.11,9.11,0,0,1,1.59,2.49c.74,1.5,1.44,3,2,4.57a8.72,8.72,0,0,1,.6,2.79,1.88,1.88,0,0,1-2.76,1.8,8.64,8.64,0,0,1-2.11-1.25,21.52,21.52,0,0,1-1.9-1.8,5.86,5.86,0,0,1-1.79-4.94,41.27,41.27,0,0,1,.79-4.53,1.07,1.07,0,0,0-.14-.94c-.82-1.16-1.62-2.33-2.42-3.5a1.11,1.11,0,0,1,.07-1.23c.2-.4.52-.32.85-.29,1,.08,2,.15,3,.24.33,0,.52,0,.65-.37,1.42-3.54,2.86-7.07,4.29-10.61a.4.4,0,0,0,0-.37c-.57.57-1.18,1.11-1.71,1.71-2.87,3.25-6.73,5-10.69,6.61a42,42,0,0,1-15,3.13c-.45,0-.6.14-.75.57a5.45,5.45,0,0,0,.43,4.89,17,17,0,0,1,2.18,6.34,9,9,0,0,1-.08,2.79c-.23,1.2-1.16,1.51-2.26.86a6,6,0,0,1-2.18-2.57,11.94,11.94,0,0,1-.49-9.18,1.4,1.4,0,0,0-.12-1.18c-.6-1.1-1.15-2.22-1.7-3.34-.41-.85,0-1.42,1-1.33.7.06,1.4.16,2.15.25l3.33-11.13-.07,0c-.82,1-1.65,2-2.45,3.07a64.77,64.77,0,0,1-8.22,8.91,36.6,36.6,0,0,1-11.18,7.29,15.57,15.57,0,0,1-9.62.9,11,11,0,0,1-4.44-2.34c-2-1.71-2.54-4-2.71-6.38,0-.71,0-1.43,0-2.2-.58.09-1.26.22-1.94.3a10.19,10.19,0,0,1-4.08-.21,5.78,5.78,0,0,1-1.67-.77.8.8,0,0,0-1.12,0c-2.19,1.66-4.36,3.34-6.61,4.93-3.05,2.14-6.16,4.21-9.26,6.29a8,8,0,0,1-1.55.76c-.84.32-1.3.21-1.72-.56-.73-1.35-1.41-2.72-2-4.11-1.06-2.42-2-4.85-3.08-7.28-.06-.14-.13-.28-.21-.45a.85.85,0,0,1-.25,0c-1.92-.11-3.26,1-4.65,2A86.81,86.81,0,0,0,22.9,174,116.21,116.21,0,0,0,13,191.63,143.64,143.64,0,0,0,4.6,214.44a2.84,2.84,0,0,1-.66,1.26,1.21,1.21,0,0,1-2.08-.45c-.05-.11-.1-.22-.14-.33V213c0-.17.09-.34.12-.52.24-1.42.39-2.86.75-4.25,1.3-5,2.61-9.95,4-14.89q2.06-7.07,4.38-14.06c1-2.87,2.23-5.65,3.19-8.52,2-6.08,4-12.2,5.93-18.3a1.44,1.44,0,0,0,0-.35l-.45.34c-1.44,1.15-2.85,2.33-4.31,3.46-2.69,2.07-5.86,3.6-10.11,5.69a9.61,9.61,0,0,1-2.41.74A2,2,0,0,1,.56,161c-.16-.36-.29-.74-.43-1.11A5,5,0,0,1,.13,157.64ZM146,171.54c-.09-1.64-2.64-6.9-3.86-8a4.8,4.8,0,0,0,.15,4.59A11.33,11.33,0,0,0,146,171.54Zm-28.56-9.78c-.84,2.7.34,6.5,2.16,7C119.8,166.77,118.53,163.37,117.43,161.76ZM154,132.44a28.85,28.85,0,0,0,4.52-9A28.63,28.63,0,0,0,154,132.44Zm-27-4,.22.07c1.16-1.5,3-6.63,2.6-7.8Zm13.58,29c.27.35.46.62.73,1,.12-.4.21-.67.31-1Z"/><path class="cls-1" d="M367.42,133h-.23c-1.71,0-1.88-.36-1.71-2.24a.79.79,0,0,1,.86-.79c1.85,0,3.7.05,5.56,0a73.09,73.09,0,0,0,12-1.41,10.67,10.67,0,0,0,1.33-.4c.42-.12.84-.31,1.12.23a1.29,1.29,0,0,1-.34,1.56,3.37,3.37,0,0,1-1.23.5c-1.74.23-3.5.37-5.24.6-2.05.27-4.1.58-6.14.91-1.77.29-3.54.65-5.31,1A4.84,4.84,0,0,1,367.42,133Z"/></g><g id="Emblem"><path class="cls-2" d="M290.67,50.1A50.1,50.1,0,1,1,240.57,0,50.1,50.1,0,0,1,290.67,50.1Z"/><path class="cls-3" d="M246.12,32.08h9.24a15.54,15.54,0,0,1,7.81,1.77,7,7,0,0,1,3.8,6.5,7.19,7.19,0,0,1-3.67,6.55,15.26,15.26,0,0,1-8,1.9h-22V73.46h21.31q7,0,11.54-2.62a10.54,10.54,0,0,0,5.58-9.77q0-8.46-8.66-11,7.22-3.09,7.21-9.45a10.14,10.14,0,0,0-4.59-9A17.89,17.89,0,0,0,255.49,29H233.31v3.08m31,36.2a17,17,0,0,1-8.92,2.1H236.67V51.89h18.5a18.8,18.8,0,0,1,8.91,1.83,8.35,8.35,0,0,1,.27,14.56Z"/><polyline class="cls-3" points="223.87 51.95 223.87 73.46 227.21 73.46 227.21 51.95 227.14 48.8 225.41 48.8 225.51 48.94"/><path class="cls-3" d="M225.73,48.81c-.25,0-.71,0-1,0-6.82,0-10-2.93-10-8.88V29H211.4V40q0,5.76,3.8,9,3.62,3,9.77,3c.26,0,.5,0,.76,0Z"/></g></svg>