<?xml version="1.0" encoding="utf-8"?>
<!-- Generator: Adobe Illustrator 24.3.0, SVG Export Plug-In . SVG Version: 6.00 Build 0)  -->
<svg version="1.1" id="Handschrift" xmlns="http://www.w3.org/2000/svg" xmlns:xlink="http://www.w3.org/1999/xlink" x="0px"
	 y="0px" viewBox="0 0 487.88 111.13" style="enable-background:new 0 0 487.88 111.13;" xml:space="preserve">
<style type="text/css">
	.st0{fill-rule:evenodd;clip-rule:evenodd;fill:#6F6F6F;}
</style>
<g>
	<path class="st0" d="M348.62,0c1.05,0.85,1.04,2.08,1.02,3.27c-0.06,3.84-0.76,7.58-1.65,11.29c-1.45,6.04-3.33,11.94-5.8,17.61
		c-0.7,1.61-1.71,3.08-2.53,4.64c-1.26,2.39-2.66,4.69-4.37,6.78c-0.19,0.24-0.26,0.61-0.32,0.93c-0.56,3.31-1.12,6.62-0.99,10
		c0.03,0.65,0.17,1.3,0.29,1.95c0.08,0.44,0.37,0.66,0.8,0.55c1.32-0.31,2.65-0.56,3.95-0.96c4.61-1.43,8.25-3,12.36-5.54
		c3.63-2.25,7.3-4.87,11.35-7.99c0.33-0.26,0.74-0.44,1.15-0.55c0.94-0.27,1.49,0.32,1.2,1.29c-0.2,0.64-0.45,1.28-0.73,1.89
		c-0.86,1.86-1.43,3.79-1.61,5.84c-0.26,3.01,1.21,5,4.1,5.52c2.54,0.46,5.01,0.01,7.48-0.54c1.72-0.38,3.3-1.13,4.85-1.95
		c4.05-2.13,7.02-4.15,11.01-6.4c2.88-1.62,5.61-3.54,8.41-5.32c0.3-0.19,0.57-0.41,0.88-0.58c0.7-0.38,1.39-0.05,1.55,0.75
		c0.13,0.67-0.02,1.26-0.52,1.75c-0.79,0.79-1.66,1.52-2.35,2.4c-0.59,0.74-1.03,1.63-1.43,2.5c-0.39,0.86-0.21,1.76,0.17,2.61
		c0.45,1,1.1,1.27,2.08,0.87c1.28-0.52,2.22-1.51,3.14-2.51c0.17-0.19,0.34-0.37,0.5-0.55c1.02,0.54,1.03,0.57,0.92,1.72
		c-0.6,6.03-1.73,11.97-3.02,17.88c-0.6,2.73-1.27,5.44-1.91,8.16c-0.02,0.09-0.02,0.18-0.05,0.39c0.97-1.23,1.85-2.4,2.78-3.51
		c1.88-2.26,3.84-4.45,5.69-6.74c2.94-3.64,5.86-7.29,8.69-11.02c2.33-3.08,4.77-6.04,7.53-8.71c0.34-0.32,0.6-0.78,0.77-1.22
		c0.94-2.32,2.63-3.81,4.8-4.78c0.73-0.33,1.66,0.53,1.53,1.39c-0.14,0.94-0.67,1.64-1.35,2.24c-1.25,1.1-2.5,2.21-3.77,3.29
		c-0.31,0.27-0.44,0.55-0.43,0.97c0.09,2.68,1.17,4.66,3.54,5.95c2.09,1.13,3.63,1.31,5.89,1.2c2.71-0.13,5.86-1,8.16-2.44
		c1.12-0.7,1.69-1.44,2.65-2.36c2.57-2.46,5.13-4.94,7.29-7.81c0.3-0.39,0.56-0.75,0.59-1.31c0.05-0.9,0.8-1.27,1.54-0.79
		c2.69,1.76,3.6,2.43,6.72,2.37c1.68-0.03,2.64-0.57,4.29-0.96c1.03-0.24,2.02-0.69,3.04-1c0.33-0.1,0.83-0.19,1.01-0.02
		c0.19,0.18,0.19,0.72,0.09,1.05c-0.54,1.81-1.19,3.6-1.68,5.42c-0.48,1.77-0.83,3.57-1.21,5.37c-0.1,0.46-0.08,0.96-0.07,1.43
		c0.02,0.65,0.31,0.96,0.92,0.87c0.8-0.11,1.61-0.26,2.36-0.56c2.99-1.18,5.74-3.4,8.35-5.27c6.19-5.5,4.13-3.93,7.61-7.07
		c0.07-0.07,0.15-0.13,0.23-0.19c0.36-0.32,0.67-0.9,1.18-0.61c0.51,0.29,0.62,0.79,0.58,1.34c-0.05,0.61-0.31,1.12-0.81,1.46
		c-2.31,1.58-2.52,2.26-4.8,3.87c-2.16,1.66-4.95,4.35-8.07,6.52c-1.31,0.91-2.71,1.7-4.12,2.44c-0.64,0.34-1.39,0.51-2.1,0.63
		c-1.26,0.22-2.27-0.52-2.67-1.86c-0.35-1.18-0.38-2.4-0.07-3.56c0.77-2.84,1.64-5.66,2.47-8.49c0.05-0.19,0.12-0.38,0.21-0.68
		c-0.46,0.16-0.83,0.3-1.2,0.43c-2.48,0.89-4.29,1.62-6.93,1.63c-2.4,0.01-2.66-0.41-4.89-1.36c-0.32-0.14-0.51-0.1-0.75,0.15
		c-2.54,2.58-5.04,5.21-7.67,7.69c-2.58,2.43-5.16,3.94-8.41,5.17c-1.48,0.56-3.75,0.85-5.34,0.74c-3.78-0.56-5.46-1.23-7.56-4.03
		c-0.84-1.13-1.18-2.46-1.45-3.82c-0.06-0.29-0.1-0.57-0.17-0.98c-1.14,1.11-2.17,2.18-3.28,3.17c-3.67,3.3-6.38,7.44-9.32,11.38
		c-2.35,3.15-4.89,6.15-7.24,9.3c-2.32,3.12-4.51,6.35-6.75,9.54c-0.14,0.2-0.23,0.46-0.31,0.7c-1.65,5.1-3.29,10.2-4.94,15.3
		c-0.08,0.25-0.18,0.49-0.29,0.72c-0.37,0.77-0.85,0.94-1.61,0.55c-0.58-0.3-0.93-0.7-0.91-1.48c0.12-3.28,1.07-6.32,2.32-9.29
		c1.22-2.91,2.78-5.62,4.47-8.26c0.26-0.41,0.47-0.87,0.6-1.34c2.35-8.53,4.16-17.17,5.26-25.97c0.04-0.31,0.07-0.62,0.11-0.99
		c-0.64,0.43-1.2,0.84-1.8,1.19c-1.84,1.04-3.45,0.53-4.42-1.4c-0.88-1.74-0.98-3.55-0.43-5.41c0.05-0.15,0.09-0.3,0.14-0.46
		c0.04-0.13,0.08-0.25,0.17-0.51c-0.91,0.48-1.71,0.92-2.51,1.33c-5.23,2.7-9.29,5.43-14.55,8.07c-3.42,1.71-7.08,2.41-10.88,2.21
		c-2.73-0.15-4.83-1.38-5.86-4.12c-0.55-1.47-0.61-3.01-0.43-4.55c0.13-1.08,0.33-2.16,0.51-3.34c-0.23,0.14-0.42,0.24-0.61,0.36
		c-7.68,4.68-13.16,8.49-21.73,11.1c-1.17,0.36-2.36,0.61-3.56,0.85c-1.64,0.33-2.37-0.17-2.8-1.85c-0.4-1.59-0.45-3.21-0.3-4.82
		c0.19-2.11,0.49-4.2,0.73-6.3c0.02-0.15,0.02-0.3,0.03-0.55c-0.91,0.85-1.73,1.65-2.59,2.41c-4.5,4.05-7.31,7.57-12.75,10.15
		c-0.87,0.42-1.8,0.73-2.72,1.01c-0.84,0.25-1.31,0.04-1.5-0.82c-0.28-1.28-0.53-2.6-0.5-3.89c0.07-2.85,0.32-5.7,0.49-8.55
		c0.01-0.14,0-0.27,0-0.49c-0.82,0.4-1.6,0.77-2.38,1.16c-3.54,1.75-7.21,3.17-11.04,3.98c-2.61,0.55-5.29,0.72-7.94,1.05
		c-0.34,0.04-0.59,0.12-0.79,0.46c-1.19,1.95-2.36,3.91-4.07,5.43c-0.64,0.57-1.37,1.06-2.12,1.43c-1.32,0.64-2.48,0.18-3.18-1.14
		c-0.55-1.04-0.75-2.18-0.78-3.35c-0.04-1.29-0.01-2.59-0.01-3.93c-6.5,4.1-13.65,6.73-21.17,8.52c0.08-0.67,0.12-1.34,0.25-2
		c0.03-0.18,0.27-0.36,0.45-0.47c2.08-1.36,3.94-2.97,5.4-5.03c0.95-1.33,1.74-2.75,1.72-4.49c-0.01-0.91-0.29-1.72-0.76-2.48
		c-0.28-0.45-0.62-0.54-1.03-0.28c-0.51,0.32-1.07,0.62-1.47,1.05c-1.79,1.93-3.58,3.87-5.29,5.88c-1.99,2.34-3.89,4.76-5.84,7.15
		c-0.15,0.18-0.34,0.32-0.53,0.46c-0.68,0.49-1.37,0.19-1.35-0.68c0.02-0.93,0.17-1.87,0.38-2.78c0.81-3.51,1.59-7.04,2.52-10.52
		c2.98-11.17,6.55-22.14,10.56-32.96c0.91-2.46,2.05-4.82,3.14-7.2c0.29-0.64,0.75-1.21,1.22-1.73c0.73-0.82,1.58-0.69,2.15,0.26
		c0.54,0.91,0.57,1.95,0.52,2.96c-0.21,3.84-1.24,7.51-2.39,11.14c-2.56,8.1-6.03,15.78-10.27,23.09c-0.86,1.49-1.9,2.86-2.85,4.29
		c-0.09,0.13-0.15,0.28-0.19,0.43c-0.91,3.39-1.81,6.77-2.72,10.16c-0.01,0.04,0,0.08,0.02,0.25c0.22-0.25,0.4-0.43,0.56-0.63
		c2.19-2.64,4.33-5.34,6.58-7.92c1.22-1.4,2.64-2.63,3.98-3.92c0.21-0.2,0.48-0.35,0.73-0.48c1.03-0.54,1.75-0.37,2.43,0.58
		c1.55,2.16,1.63,4.49,0.72,6.93c-0.65,1.75-1.71,3.21-2.92,4.58c-0.19,0.22-0.39,0.43-0.67,0.74c0.25-0.05,0.37-0.07,0.5-0.11
		c5.79-1.9,11.24-4.52,16.23-8.12c0.35-0.25,0.65-0.62,0.87-1c1.06-1.87,2.53-3.21,4.53-3.9c0.81-0.28,1.28-0.17,1.63,0.4
		c0.37,0.61,0.23,1.45-0.22,2c-1.35,1.66-3.1,2.81-4.75,4.1c-0.26,0.2-0.51,0.51-0.59,0.82c-0.48,1.95-0.75,3.92-0.47,5.93
		c0.26,1.8,1.08,2.2,2.62,1.32c1.39-0.79,2.3-2.07,3.16-3.38c0.59-0.91,1.11-1.88,1.6-2.85c0.59-1.15,0.85-1.25,2.09-1.19
		c2.13,0.1,4.26-0.06,6.35-0.52c2.63-0.58,5.27-1.13,7.74-2.29c2.35-1.11,4.61-2.37,6.7-3.94c0.53-0.4,0.94-0.94,1.03-1.65
		c1.22-9.12,2.63-18.21,4.76-27.17c0.89-3.76,1.96-7.47,3.04-11.18c0.24-0.85,0.82-1.59,1.25-2.39c0.12,0,0.23,0,0.35,0
		c0.52,0.5,0.7,1.16,0.68,1.84c-0.05,2.11-0.04,4.24-0.27,6.34c-0.69,6.28-1.83,12.47-3.34,18.59c-1.29,5.21-2.7,10.37-4.95,15.25
		c-0.23,0.5-0.33,1.08-0.49,1.62c-0.05,0.17-0.06,0.39-0.17,0.5c-0.52,0.52-0.46,1.2-0.53,1.84c-0.12,1.07-0.26,2.14-0.3,3.22
		c-0.07,2.21-0.15,4.43-0.08,6.64c0.04,1.41,0.24,1.45,1.54,0.96c2.47-0.93,4.73-2.28,6.91-3.76c4.56-3.1,6.74-6.63,10.36-10.88
		c0.41-0.48,0.99-0.78,1.16-1.52c1.3-5.63,2.51-11.28,3.98-16.87c1.76-6.71,4.02-13.26,6.85-19.58c0.69-1.55,1.37-3.14,2.76-4.21
		C348.15,0,348.38,0,348.62,0z M348.2,2.62c-0.09-0.03-0.18-0.06-0.26-0.09c-0.54,1.16-1.14,2.29-1.61,3.48
		c-4.16,10.51-7.2,21.39-10.02,32.35c0.28-0.27,0.51-0.55,0.68-0.88c1.69-3.12,3.46-6.19,5.02-9.38c2.33-4.77,3.25-10.05,4.84-15.09
		c0.66-2.08,0.82-4.34,1.12-6.53C348.14,5.21,348.13,3.91,348.2,2.62z M258.9,37.02c0.03,0.02,0.07,0.04,0.1,0.07
		c0.09-0.13,0.18-0.25,0.26-0.39c4.27-7.09,7.62-14.62,10.01-22.59c0.81-2.69,1.51-5.41,1.7-8.24c0.04-0.63,0.05-1.26-0.31-1.98
		c-0.31,0.42-0.6,0.71-0.77,1.07c-0.74,1.54-1.51,3.06-2.14,4.65c-2.61,6.65-4.66,13.49-6.74,20.33
		C260.3,32.3,259.61,34.66,258.9,37.02z M315.79,38.17c3.17-5.08,8.79-31.16,7.59-35.38C319.94,14.37,317.9,26.28,315.79,38.17z
		 M393.31,90.62c-0.86,1.2-2.37,5.62-2.3,6.62C391.81,94.94,392.56,92.78,393.31,90.62z"/>
	<path class="st0" d="M0.13,52.65c0.54-1.76,1-3.55,1.66-5.26c0.55-1.41,1.31-2.76,2.06-4.09c0.24-0.43,0.71-0.79,1.16-1.05
		c0.56-0.34,1.08-0.1,1.12,0.54c0.04,0.6-0.05,1.24-0.25,1.81c-0.29,0.81-0.71,1.58-1.11,2.34c-1.05,2.03-1.96,4.11-2.3,6.37
		c-0.07,0.47-0.19,1.05,0.08,1.46c0.65,0.22,1.11-0.09,1.6-0.29c2.52-1.05,6.34-2.64,8.48-4.26c3.08-2.34,6.09-4.76,9.13-7.16
		c0.2-0.16,0.35-0.39,0.57-0.64c0.35,0.32,0.67,0.54,0.9,0.83c0.11,0.13,0.12,0.41,0.06,0.58c-2.05,6.12-4.07,12.25-6.18,18.35
		c-1.22,3.52-2.69,6.97-3.83,10.51c-1.83,5.71-3.5,11.46-5.19,17.21c-0.58,1.96-1.04,3.95-1.56,5.93c-0.03,0.13-0.05,0.27,0.03,0.44
		c0.08-0.16,0.16-0.33,0.23-0.49c3.03-7.21,6.47-14.22,10.38-21.04c5.36-9.35,12.23-17.5,20.31-24.74c2.59-2.33,5.4-4.43,8.15-6.6
		c0.49-0.39,1.17-0.55,1.77-0.81c0.35-0.15,0.71-0.3,1.08-0.44c0.17-0.06,0.35-0.11,0.53-0.11c0.37,0.01,0.74,0.06,1.11,0.08
		c0.79,0.03,1.1,0.47,0.89,1.21c-0.09,0.31-0.16,0.68-0.06,0.97c1.24,3.54,2.5,7.07,3.78,10.6c0.17,0.48,0.45,0.93,0.74,1.51
		c1.47-0.87,2.92-1.62,4.24-2.54c3.85-2.69,7.65-5.45,11.45-8.21c0.44-0.32,0.77-0.78,1.13-1.2c0.79-0.9,1.33-1.04,2.45-0.53
		c0.73,0.33,1.46,0.68,2.13,1.12c0.85,0.55,1.74,0.64,2.67,0.38c1.21-0.34,2.41-0.73,3.6-1.14c0.24-0.08,0.44-0.35,0.59-0.57
		c0.84-1.28,2.1-2.09,3.41-2.82c0.6-0.33,1.08-0.15,1.47,0.41c0.2,0.29,0.42,0.58,0.65,0.85c0.72,0.79,0.36,2.12-0.66,2.47
		c-1.41,0.49-2.81,0.97-4.2,1.5c-0.23,0.09-0.45,0.35-0.56,0.58c-0.57,1.22-0.5,2.49-0.25,3.76c0.59,2.98,2.74,4.45,5.57,5.07
		c4.05,0.9,7.98,0.4,11.66-1.5c4.33-2.23,7.76-5.47,10.86-9.06c1.64-1.91,3.17-3.9,4.76-5.86c1.81-2.24,3.64-4.46,5.44-6.71
		c0.78-0.97,1.23-2.1,1.65-3.26c1.94-5.29,3.95-10.56,5.95-15.83c0.15-0.39,0.36-0.77,0.63-1.09c0.17-0.21,0.51-0.46,0.71-0.41
		c0.26,0.06,0.6,0.36,0.65,0.61c0.13,0.63,0.22,1.31,0.16,1.95c-0.32,3.26-1.47,6.3-2.77,9.29c-1.41,3.26-3.24,6.3-5.08,9.34
		c-0.17,0.27-0.34,0.56-0.42,0.86c-1.38,4.77-2.74,9.55-4.1,14.33c-0.04,0.15-0.05,0.31-0.1,0.58c1.32-0.11,2.61-0.16,3.88-0.33
		c8.23-1.11,15.39-4.38,21.42-9.9c1.98-1.81,3.76-3.8,5.23-6.01c0.65-0.98,1-2.15,1.52-3.21c2.03-4.18,4.05-8.37,6.11-12.53
		c0.36-0.73,0.85-1.42,1.39-2.05c0.63-0.73,1.63-0.57,1.89,0.34c0.21,0.74,0.23,1.59,0.08,2.35c-0.53,2.84-1.78,5.43-3.21,7.95
		c-1.94,3.42-4.24,6.59-6.82,9.59c-0.18,0.21-0.35,0.46-0.45,0.71c-1.87,4.79-3.73,9.58-5.59,14.37c-0.05,0.13-0.06,0.27-0.11,0.49
		c1.26-0.05,2.48-0.07,3.7-0.16c7.24-0.53,14.23-2.1,20.89-4.9c1.02-0.43,2.01-0.9,2.9-1.59c1.24-0.97,2.68-1.68,4.23-2.12
		c0.61-0.17,1.65,0.06,1.95,0.59c0.16,0.28,0.16,0.75,0.03,1.06c-0.35,0.83-1.06,1.39-1.89,1.75c-1.42,0.62-2.85,1.2-4.3,1.74
		c-0.52,0.19-0.81,0.52-1.01,0.97c-0.85,1.88-0.04,4.77,1.72,6.15c1.8,1.41,3.93,2.06,6.17,2.38c8.73,1.22,22.82-2.73,29.32-6.5
		c4.48-2.6,8.51-5.72,12.19-9.28c0.18-0.17,0.35-0.35,0.56-0.47c0.76-0.46,1.71-0.06,1.87,0.8c0.13,0.69-0.04,1.33-0.63,1.79
		c-4.67,3.61-9.42,7.11-14.81,9.71c-5.48,2.69-13.46,5.27-20.93,6.1c-6.57,0.73-7.3,0.24-12.87-1.7c-3.5-1.92-4.93-4.86-4.65-8.73
		c-0.2,0.05-0.39,0.09-0.57,0.15c-7.37,2.45-14.92,3.95-22.74,4.12c-1.77,0.04-1.69,0.08-2.32,1.69c-0.47,1.2-0.33,2.09,0.62,3.04
		c0.68,0.69,1.15,1.61,1.59,2.49c0.74,1.5,1.44,3.02,2.03,4.57c0.34,0.88,0.57,1.85,0.6,2.78c0.05,1.53-1.29,2.39-2.77,1.8
		c-0.75-0.3-1.47-0.75-2.11-1.25c-0.69-0.54-1.28-1.2-1.91-1.81c-1.41-1.37-1.96-3.07-1.79-4.94c0.14-1.52,0.48-3.03,0.79-4.53
		c0.07-0.36,0.08-0.63-0.14-0.94c-0.82-1.15-1.61-2.33-2.42-3.49c-0.29-0.43-0.14-0.82,0.07-1.24c0.2-0.4,0.53-0.32,0.85-0.29
		c1.01,0.08,2.03,0.15,3.04,0.24c0.33,0.03,0.52-0.03,0.65-0.37c1.42-3.54,2.86-7.08,4.29-10.61c0.04-0.09,0.07-0.18-0.02-0.37
		c-0.57,0.57-1.18,1.11-1.72,1.71c-2.87,3.25-6.72,5.01-10.68,6.61c-4.8,1.93-9.79,3.03-15.01,3.13c-0.45,0.01-0.6,0.14-0.75,0.56
		c-0.6,1.71-0.53,3.24,0.43,4.89c1.13,1.95,1.89,4.1,2.18,6.34c0.12,0.92,0.1,1.88-0.07,2.79c-0.24,1.21-1.16,1.51-2.26,0.86
		c-1.03-0.61-1.67-1.55-2.19-2.56c-1.52-2.99-1.41-6.07-0.49-9.18c0.13-0.44,0.1-0.78-0.12-1.18c-0.6-1.1-1.15-2.22-1.69-3.34
		c-0.41-0.85,0.01-1.42,0.97-1.33c0.7,0.06,1.4,0.16,2.15,0.25c1.11-3.7,2.22-7.41,3.33-11.13c-0.02-0.01-0.04-0.03-0.07-0.04
		c-0.82,1.02-1.65,2.03-2.45,3.07c-2.46,3.21-5.19,6.18-8.22,8.91c-3.33,2.99-6.91,5.64-11.18,7.29c-3.11,1.2-6.3,1.75-9.62,0.91
		c-1.68-0.43-3.14-1.24-4.43-2.35c-1.98-1.7-2.54-3.97-2.71-6.37c-0.05-0.71-0.01-1.43-0.01-2.2c-0.58,0.09-1.26,0.22-1.95,0.3
		c-1.37,0.16-2.74,0.18-4.08-0.21c-0.59-0.17-1.18-0.43-1.67-0.77c-0.45-0.32-0.73-0.25-1.12,0.05c-2.19,1.65-4.36,3.34-6.61,4.92
		c-3.05,2.15-6.16,4.22-9.26,6.3c-0.47,0.32-1.02,0.55-1.55,0.75c-0.84,0.32-1.3,0.21-1.72-0.56c-0.73-1.34-1.4-2.72-2.02-4.11
		c-1.06-2.41-2.05-4.85-3.08-7.27c-0.06-0.15-0.14-0.29-0.22-0.45c-0.1,0.02-0.17,0.04-0.25,0.04c-1.92-0.12-3.26,1.03-4.64,2.02
		C35.67,53.72,28.6,60.76,22.9,69c-3.86,5.57-7.11,11.5-9.94,17.63c-3.41,7.4-6.24,14.98-8.36,22.81c-0.12,0.45-0.33,0.95-0.66,1.26
		c-0.77,0.73-1.65,0.5-2.09-0.45c-0.05-0.11-0.09-0.22-0.14-0.33c0-0.64,0-1.28,0-1.92c0.04-0.17,0.09-0.34,0.12-0.52
		c0.25-1.42,0.39-2.86,0.75-4.25c1.3-4.98,2.61-9.95,4.04-14.9c1.37-4.71,2.84-9.4,4.38-14.06c0.95-2.87,2.22-5.64,3.18-8.51
		c2.04-6.08,3.96-12.2,5.93-18.3c0.03-0.08,0.02-0.17,0.03-0.35c-0.2,0.15-0.33,0.24-0.45,0.34c-1.43,1.15-2.85,2.33-4.31,3.46
		c-2.69,2.08-5.86,3.6-10.11,5.7c-0.75,0.35-1.59,0.59-2.42,0.74c-1.07,0.19-1.9-0.33-2.32-1.31c-0.16-0.36-0.28-0.74-0.42-1.11
		C-0.04,53.71-0.05,53.54,0.13,52.65z M145.99,66.54c-0.1-1.64-2.64-6.9-3.86-8.01c-0.7,1.58-0.71,3.09,0.15,4.59
		C143.13,64.6,144.52,65.54,145.99,66.54z M117.43,56.77c-0.85,2.7,0.34,6.5,2.16,7.03C119.8,61.77,118.53,58.38,117.43,56.77z
		 M153.98,27.44c1.96-2.8,3.64-5.74,4.52-9.04C156.38,21.12,155.02,24.2,153.98,27.44z M126.95,23.46c0.07,0.02,0.14,0.04,0.21,0.07
		c1.16-1.5,2.97-6.63,2.6-7.8C128.83,18.3,127.89,20.88,126.95,23.46z M140.53,52.43c0.26,0.35,0.46,0.61,0.72,0.97
		c0.12-0.4,0.21-0.66,0.31-0.97C141.22,52.43,140.95,52.43,140.53,52.43z"/>
	<path class="st0" d="M367.42,27.95c-0.19,0-0.21,0-0.23,0c-1.72,0.02-1.89-0.36-1.71-2.24c0.04-0.45,0.3-0.79,0.85-0.79
		c1.85,0.02,3.7,0.05,5.56,0.02c4.04-0.05,8.01-0.7,11.97-1.41c0.45-0.08,0.89-0.26,1.33-0.4c0.41-0.13,0.84-0.31,1.12,0.22
		c0.25,0.48,0.1,1.29-0.34,1.56c-0.37,0.23-0.8,0.44-1.23,0.5c-1.74,0.23-3.5,0.37-5.24,0.6c-2.05,0.27-4.1,0.58-6.14,0.91
		c-1.77,0.29-3.54,0.65-5.31,0.97C367.8,27.95,367.52,27.94,367.42,27.95z"/>
</g>
</svg>
